<?xml version="1.0" encoding="UTF-8" standalone="no"?>
<!-- Created with Inkscape (http://www.inkscape.org/) -->

<svg
   width="16"
   height="16"
   viewBox="0 0 4.2333335 4.2333335"
   version="1.1"
   id="svg5"
   inkscape:version="1.1.2 (0a00cf5339, 2022-02-04)"
   sodipodi:docname="persons.svg"
   xmlns:inkscape="http://www.inkscape.org/namespaces/inkscape"
   xmlns:sodipodi="http://sodipodi.sourceforge.net/DTD/sodipodi-0.dtd"
   xmlns="http://www.w3.org/2000/svg"
   xmlns:svg="http://www.w3.org/2000/svg">
  <sodipodi:namedview
     id="namedview7"
     pagecolor="#ffffff"
     bordercolor="#666666"
     borderopacity="1.0"
     inkscape:pageshadow="2"
     inkscape:pageopacity="0.0"
     inkscape:pagecheckerboard="0"
     inkscape:document-units="mm"
     showgrid="false"
     units="px"
     inkscape:zoom="47.151066"
     inkscape:cx="7.0624066"
     inkscape:cy="6.5003833"
     inkscape:window-width="1920"
     inkscape:window-height="1009"
     inkscape:window-x="0"
     inkscape:window-y="0"
     inkscape:window-maximized="1"
     inkscape:current-layer="layer2" />
  <defs
     id="defs2">
    <inkscape:path-effect
       effect="bspline"
       id="path-effect2151"
       is_visible="true"
       lpeversion="1"
       weight="33.333333"
       steps="2"
       helper_size="0"
       apply_no_weight="true"
       apply_with_weight="true"
       only_selected="false" />
    <inkscape:path-effect
       effect="bspline"
       id="path-effect1525"
       is_visible="true"
       lpeversion="1"
       weight="33.333333"
       steps="2"
       helper_size="0"
       apply_no_weight="true"
       apply_with_weight="true"
       only_selected="false" />
    <inkscape:path-effect
       effect="bspline"
       id="path-effect861"
       is_visible="true"
       lpeversion="1"
       weight="33.333333"
       steps="2"
       helper_size="0"
       apply_no_weight="true"
       apply_with_weight="true"
       only_selected="false" />
  </defs>
  <g
     inkscape:groupmode="layer"
     id="layer2"
     inkscape:label="Layer 2"
     style="display:inline">
    <ellipse
       style="display:inline;opacity:1;fill:none;dark:stroke:#000000;stroke-width:0.15;stroke-miterlimit:4;stroke-dasharray:none;stroke-opacity:1"
       id="path956"
       ry="0.54340273"
       rx="0.53386337"
       cy="1.3124641"
       cx="2.0809457" />
    <ellipse
       style="display:inline;fill:none;stroke:#000000;stroke-width:0.111411;stroke-miterlimit:4;stroke-dasharray:none;stroke-opacity:1"
       id="path956-3"
       ry="0.39709318"
       rx="0.4030292"
       cy="1.5820537"
       cx="3.3118858" />
    <ellipse
       style="display:inline;fill:none;stroke:#000000;stroke-width:0.111411;stroke-miterlimit:4;stroke-dasharray:none;stroke-opacity:1"
       id="path956-3-6"
       ry="0.39709318"
       rx="0.4030292"
       cy="1.6174603"
       cx="0.88686645" />
    <path
       style="display:inline;fill:none;stroke:#000000;stroke-width:0.165;stroke-linecap:butt;stroke-linejoin:miter;stroke-miterlimit:4;stroke-dasharray:none;stroke-opacity:1"
       d="M 1.0865906,3.1867345 C 1.085727,3.1238294 1.0839962,2.9977512 1.101362,2.8819156 1.1187277,2.76608 1.1552456,2.6606052 1.218593,2.5564143 1.2819403,2.4522234 1.3720754,2.3494589 1.4653244,2.274253 1.5585734,2.1990472 1.6548069,2.1514756 1.7531835,2.11864 1.8515605,2.085804 1.9519713,2.067691 2.0497911,2.063934 c 0.09782,-0.00376 0.1929618,0.00677 0.2899029,0.030447 0.096941,0.023673 0.1956467,0.060401 0.2887793,0.1147363 0.093133,0.054335 0.1807176,0.1261565 0.2534615,0.2092141 0.072744,0.083058 0.1307398,0.1772723 0.1691472,0.284015 C 3.089489,2.8090892 3.10845,2.9283645 3.11808,3.0368643 3.12771,3.145364 3.12806,3.2431151 3.12272,3.3140022 3.11738,3.3848892 3.106403,3.4289863 3.081528,3.4568987 3.056653,3.4848107 3.017669,3.4967727 2.7056947,3.5099157 2.3937209,3.5230587 1.8087058,3.5373367 1.4924842,3.5197257 1.1762627,3.5021137 1.1288797,3.4523357 1.1060897,3.401995 1.0832997,3.351654 1.0853727,3.3007729 1.0864147,3.275205 c 0.00104,-0.025568 0.00104,-0.025565 1.785e-4,-0.08847 z"
       id="path859"
       inkscape:path-effect="#path-effect861"
       inkscape:original-d="M 1.0874542,3.2496397 C 1.0859879,3.1238258 1.0842571,2.9977476 1.0822617,2.8714049 1.1190457,2.7661901 1.1555637,2.6607153 1.1918178,2.5549737 1.282221,2.4524696 1.372356,2.349705 1.4622283,2.2466739 1.5587304,2.1993649 1.654964,2.1517934 1.750935,2.1039562 c 0.1006797,-0.017849 0.2010908,-0.035963 0.3012393,-0.054341 0.095411,0.010795 0.1905529,0.021325 0.2854325,0.031591 0.098974,0.036994 0.1976796,0.073722 0.2961226,0.1101861 0.087853,0.072089 0.1754381,0.1439101 0.2627604,0.2154683 0.058263,0.094483 0.1162587,0.1886977 0.173991,0.2826498 0.019225,0.1195445 0.038186,0.2388197 0.056882,0.3578328 6.122e-4,0.09802 9.598e-4,0.1957711 0.00104,0.2932597 C 3.1176898,3.3849669 3.1067118,3.4290639 3.0954688,3.4729 3.0567468,3.485127 3.0177628,3.497089 2.978514,3.508786 2.3937247,3.52333 1.8087096,3.537608 1.2233875,3.551623 1.1762665,3.502107 1.1288835,3.452329 1.0812339,3.4022842 c 0.00234,-0.050619 0.00441,-0.1015005 0.00622,-0.1526476 z"
       sodipodi:nodetypes="cccccccccccccccccc" />
    <path
       style="display:inline;fill:none;stroke:#000000;stroke-width:0.165;stroke-linecap:butt;stroke-linejoin:miter;stroke-miterlimit:4;stroke-dasharray:none;stroke-opacity:1"
       d="m 2.9004216,2.3959726 c -0.00253,-0.055225 0.068734,-0.092586 0.1524071,-0.121288 0.083673,-0.028702 0.1796558,-0.048755 0.2716419,-0.049637 0.091986,-8.825e-4 0.1798644,0.0173 0.2509141,0.044845 0.07105,0.027545 0.1252698,0.06431 0.1724923,0.098912 0.047223,0.034602 0.08746,0.067013 0.1219455,0.1048793 0.034486,0.037866 0.063306,0.081113 0.08876,0.1370315 0.025454,0.055918 0.047642,0.1244929 0.061056,0.1848726 0.013414,0.06038 0.018129,0.1125919 0.021458,0.1720839 0.00333,0.059492 0.00529,0.1262744 -0.00172,0.168029 -0.007,0.041755 -0.022957,0.058745 -0.051034,0.072335 -0.028077,0.01359 -0.06847,0.023836 -0.1531738,0.030292 -0.084704,0.00646 -0.2137855,0.00908 -0.3188421,0.01031 -0.1050567,0.00123 -0.1860873,0.00106 -0.2445386,-0.00184 C 3.213337,3.2438979 3.177435,3.2382179 3.1573608,3.1967609 3.1372922,3.1553074 3.1333327,3.0778611 3.1189722,2.9718733 3.1046117,2.8658855 3.0798109,2.7313479 3.0294462,2.6276598 2.9790814,2.5239717 2.9029469,2.451197 2.9004216,2.3959726 Z"
       id="path1523"
       inkscape:path-effect="#path-effect1525"
       inkscape:original-d="m 2.8265388,2.3781609 c 0.071523,-0.037097 0.1427823,-0.074458 0.2137763,-0.1120832 0.096251,-0.019789 0.1922333,-0.039842 0.287953,-0.060159 0.088147,0.018447 0.1760251,0.03663 0.2636408,0.054547 0.054486,0.03703 0.1087062,0.073794 0.1626624,0.1102948 0.040503,0.032677 0.08074,0.065088 0.1207133,0.097235 0.029085,0.043513 0.057905,0.08676 0.08646,0.1297433 0.022453,0.068842 0.044642,0.1374164 0.066566,0.2057276 0.00498,0.052479 0.0097,0.1046909 0.014147,0.1566394 0.00222,0.06705 0.00418,0.1338324 0.00588,0.2003515 -0.015687,0.017254 -0.03164,0.034244 -0.047857,0.050968 -0.04013,0.010512 -0.080524,0.020757 -0.1211821,0.030739 -0.1288224,0.00289 -0.2579044,0.00551 -0.3872537,0.00787 -0.08077,9.58e-5 -0.1618006,-7.3e-5 -0.2430978,-5.027e-4 C 3.213308,3.2441116 3.177406,3.2384296 3.141238,3.2324846 3.1375426,3.1552946 3.1335831,3.0778483 3.1293587,3.0001309 3.1048204,2.865847 3.0800196,2.7313094 3.0549517,2.5964937 2.9790756,2.5239778 2.9029411,2.4512031 2.8265388,2.3781609 Z"
       sodipodi:nodetypes="cccccccccccccccccc" />
    <path
       style="display:inline;fill:none;stroke:#000000;stroke-width:0.165;stroke-linecap:butt;stroke-linejoin:miter;stroke-miterlimit:4;stroke-dasharray:none;stroke-opacity:1"
       d="M 1.2746639,2.3703206 C 1.2376265,2.3512702 1.1632349,2.3130064 1.0733947,2.2929634 0.9835545,2.2729205 0.87831828,2.2712572 0.79500459,2.2807204 c -0.0833137,0.00946 -0.14458877,0.03011 -0.20437289,0.054798 -0.0597841,0.024689 -0.11802423,0.05342 -0.17483825,0.099098 -0.056814,0.045678 -0.11207455,0.1082285 -0.15623513,0.1907206 -0.0441606,0.082492 -0.0771785,0.184771 -0.0918226,0.2633944 -0.0146441,0.078623 -0.0109846,0.1334675 -0.007434,0.1855672 0.00355,0.0521 0.00699,0.1014497 0.0205943,0.1388299 0.0136038,0.03738 0.0371347,0.062793 0.1075426,0.074751 0.0704079,0.011957 0.18767578,0.010734 0.31851972,0.010813 0.13084395,7.93e-5 0.27524583,0.00146 0.35441051,-0.00709 0.0791648,-0.00854 0.0933848,-0.027042 0.10266685,-0.059169 0.00928,-0.032128 0.013618,-0.078083 0.018956,-0.1455889 0.00534,-0.067506 0.011673,-0.1565642 0.025927,-0.232391 0.014254,-0.075827 0.036463,-0.1383248 0.068747,-0.2028224 0.032285,-0.064498 0.074634,-0.1309093 0.098641,-0.1748706 0.024007,-0.043961 0.029677,-0.065586 0.032535,-0.07649 0.00286,-0.010904 0.00286,-0.010902 -0.034179,-0.029953 z"
       id="path2149"
       inkscape:path-effect="#path-effect2151"
       inkscape:original-d="M 1.3117013,2.389371 C 1.2375742,2.3513718 1.1631826,2.313108 1.0885263,2.2745796 c -0.1049759,-0.0014 -0.21021217,-0.00306 -0.31571517,-0.00499 -0.0610131,0.020912 -0.12228825,0.041558 -0.18382924,0.06194 -0.0579776,0.028996 -0.11621749,0.057727 -0.17472314,0.086193 -0.0549995,0.062819 -0.11025994,0.1253696 -0.16578894,0.1876599 -0.0327551,0.1025489 -0.0657731,0.2048278 -0.0990565,0.3068449 0.003924,0.055111 0.007584,0.1099551 0.0109786,0.1645368 0.003705,0.049617 0.007145,0.098967 0.0103206,0.1480547 0.0237976,0.02568 0.0473287,0.051093 0.0705969,0.076244 0.11753955,-9.596e-4 0.2348075,-0.00218 0.35181792,-0.00367 0.14467217,0.00164 0.28907402,0.00302 0.43321407,0.00413 0.014486,-0.018235 0.028706,-0.036733 0.042662,-0.055496 0.0046,-0.045692 0.00894,-0.091647 0.013009,-0.1378673 0.0066,-0.088798 0.012934,-0.1778568 0.019005,-0.2671823 0.022474,-0.062235 0.044683,-0.1247328 0.066627,-0.1874959 0.042615,-0.066149 0.084964,-0.1325606 0.1270489,-0.1992378 0.00593,-0.021361 0.011603,-0.042985 0.017008,-0.064874 z"
       sodipodi:nodetypes="ccccccccccccccccccc" />
  </g>
</svg>
