<?xml version="1.0" encoding="UTF-8" standalone="no"?>
<!-- Created with Inkscape (http://www.inkscape.org/) -->

<svg
   width="16"
   height="16"
   viewBox="0 0 4.2333332 4.2333335"
   version="1.1"
   id="svg5"
   inkscape:version="1.1.2 (0a00cf5339, 2022-02-04)"
   sodipodi:docname="table.svg"
   xmlns:inkscape="http://www.inkscape.org/namespaces/inkscape"
   xmlns:sodipodi="http://sodipodi.sourceforge.net/DTD/sodipodi-0.dtd"
   xmlns="http://www.w3.org/2000/svg"
   xmlns:svg="http://www.w3.org/2000/svg">
  <sodipodi:namedview
     id="namedview7"
     pagecolor="#ffffff"
     bordercolor="#666666"
     borderopacity="1.0"
     inkscape:pageshadow="2"
     inkscape:pageopacity="0.0"
     inkscape:pagecheckerboard="0"
     inkscape:document-units="mm"
     showgrid="false"
     units="px"
     width="16px"
     inkscape:zoom="66.681677"
     inkscape:cx="8.0531868"
     inkscape:cy="7.7157627"
     inkscape:window-width="1920"
     inkscape:window-height="1009"
     inkscape:window-x="0"
     inkscape:window-y="0"
     inkscape:window-maximized="1"
     inkscape:current-layer="layer2" />
  <defs
     id="defs2">
    <inkscape:path-effect
       effect="bspline"
       id="path-effect5830"
       is_visible="true"
       lpeversion="1"
       weight="33.333333"
       steps="2"
       helper_size="0"
       apply_no_weight="true"
       apply_with_weight="true"
       only_selected="false" />
    <inkscape:path-effect
       effect="bspline"
       id="path-effect915"
       is_visible="true"
       lpeversion="1"
       weight="33.333333"
       steps="2"
       helper_size="0"
       apply_no_weight="true"
       apply_with_weight="true"
       only_selected="false" />
    <inkscape:path-effect
       effect="bspline"
       id="path-effect915-3"
       is_visible="true"
       lpeversion="1"
       weight="33.333333"
       steps="2"
       helper_size="0"
       apply_no_weight="true"
       apply_with_weight="true"
       only_selected="false" />
    <inkscape:path-effect
       effect="bspline"
       id="path-effect915-3-6"
       is_visible="true"
       lpeversion="1"
       weight="33.333333"
       steps="2"
       helper_size="0"
       apply_no_weight="true"
       apply_with_weight="true"
       only_selected="false" />
    <inkscape:path-effect
       effect="bspline"
       id="path-effect5830-3"
       is_visible="true"
       lpeversion="1"
       weight="33.333333"
       steps="2"
       helper_size="0"
       apply_no_weight="true"
       apply_with_weight="true"
       only_selected="false" />
  </defs>
  <g
     inkscape:groupmode="layer"
     id="layer2"
     inkscape:label="Layer 2"
     style="display:inline">
    <path
       style="opacity:0.993352;fill:none;stroke:#000000;stroke-width:0.065;stroke-linecap:butt;stroke-linejoin:miter;stroke-miterlimit:4;stroke-dasharray:none;stroke-opacity:1"
       d="m 0.53810638,1.6846254 c -0.1090264,0.00204 -0.15491805,0.00594 -0.17638048,-0.012435 -0.0214624,-0.018373 -0.0182366,-0.059276 -0.0203699,-0.099814 -0.002133,-0.040538 -0.009702,-0.080769 0.0309399,-0.1000921 0.040642,-0.019323 0.12927629,-0.01744 0.69016056,-0.015082 0.5608843,0.00236 1.5939756,0.00519 2.1502319,0.00424 0.5562563,-9.496e-4 0.6356717,-0.00567 0.672764,0.01404 0.037092,0.01971 0.032132,0.063601 0.030712,0.1040867 -0.00142,0.040486 6.605e-4,0.077516 -0.014612,0.094384 -0.015272,0.016868 -0.048167,0.013825 -0.3961573,0.011713 -0.3479902,-0.00211 -1.011302,-0.00327 -1.674357,-0.00442 0,0 -0.83987931,9.241e-4 -0.83987931,9.241e-4 -0.17214328,2.045e-4 -0.34402652,4.088e-4 -0.45305291,0.00245 z"
       id="path913"
       inkscape:path-effect="#path-effect915-3-6"
       inkscape:original-d="m 0.47472946,1.6827896 c -0.0456254,0.00416 -0.0915168,0.00806 -0.13767296,0.011691 0.003491,-0.040641 0.006717,-0.081544 0.009678,-0.1227143 -0.007304,-0.039967 -0.014873,-0.080198 -0.0227066,-0.1206943 0.0889045,0.00215 0.17753886,0.00403 0.26591413,0.00565 1.03339807,0.0031 2.06648937,0.00594 3.09933707,0.00851 0.079682,-0.00446 0.1590974,-0.00918 0.2382525,-0.014161 -0.0047,0.044158 -0.00966,0.088049 -0.014882,0.1316778 0.00235,0.037296 0.00443,0.074326 0.00624,0.1110931 -0.032631,-0.00278 -0.065526,-0.00582 -0.098686,-0.00913 -0.6627987,-8.88e-4 -1.989165,-0.00346 -1.989165,-0.00346 L 0.99115929,1.682176 c 0,0 -0.34402621,6.736e-4 -0.51642983,6.136e-4 z"
       sodipodi:nodetypes="ccccccccccccc" />
    <path
       style="fill:none;stroke:#000000;stroke-width:0.065;stroke-linecap:butt;stroke-linejoin:miter;stroke-miterlimit:4;stroke-dasharray:none;stroke-opacity:1"
       d="m 0.52873507,2.7021208 c 0,0 -0.003068,-1.0165581 -0.003068,-1.0165581 0,0 0.27962602,-7.21e-5 0.27962602,-7.21e-5 0,0 0.009389,0.937006 0.009389,0.937006 7.9733e-4,0.063191 0.001598,0.1266486 0.002091,0.1747817 4.9328e-4,0.048133 6.8429e-4,0.081205 -0.0189777,0.096606 -0.019662,0.015401 -0.0594493,0.013381 -0.0987023,0.012477 -0.039253,-9.04e-4 -0.0779501,-6.764e-4 -0.10652482,-0.00161 -0.0285747,-9.385e-4 -0.0470515,-0.00308 -0.0561065,-0.036931 -0.009055,-0.033852 -0.00839,-0.099904 -0.007727,-0.1656945 z"
       id="path5828"
       inkscape:path-effect="#path-effect5830"
       inkscape:original-d="m 0.52873507,2.7021208 -0.003068,-1.0165581 0.27962602,-7.21e-5 0.009389,0.937006 c 0,0 0.001859,0.1266453 0.002392,0.1895742 4.5561e-4,0.033339 6.4663e-4,0.066411 5.7307e-4,0.09922 -0.039526,-0.00176 -0.0793133,-0.00378 -0.11936906,-0.00606 -0.0384362,4.922e-4 -0.0771333,7.199e-4 -0.11609815,6.829e-4 -0.0182135,-0.00187 -0.0366903,-0.00401 -0.0554329,-0.00642 9.2734e-4,-0.065528 0.001988,-0.1973738 0.001988,-0.1973729 z"
       sodipodi:nodetypes="cccccccccc" />
    <path
       style="fill:none;stroke:#000000;stroke-width:0.065;stroke-linecap:butt;stroke-linejoin:miter;stroke-miterlimit:4;stroke-dasharray:none;stroke-opacity:1"
       d="m 3.438256,2.6932059 c 0,0 -0.00552,-1.0026418 -0.00552,-1.0026418 0,0 0.2820768,-0.00234 0.2820768,-0.00234 0,0 0.00939,0.925363 0.00939,0.925363 7.967e-4,0.063191 0.0016,0.1266486 0.00209,0.1747817 4.93e-4,0.048133 6.84e-4,0.081205 -0.018978,0.096606 -0.019662,0.015401 -0.059449,0.013381 -0.098702,0.012477 -0.039253,-9.04e-4 -0.07795,-6.764e-4 -0.1065247,-0.00161 -0.028575,-9.385e-4 -0.047052,-0.00308 -0.056106,-0.036931 -0.00905,-0.033852 -0.00839,-0.099903 -0.00773,-0.1656945 0,0 4e-7,-5.4e-6 4e-7,-5.4e-6 z"
       id="path5828-5"
       inkscape:path-effect="#path-effect5830-3"
       inkscape:original-d="m 3.438256,2.6932059 -0.00552,-1.0026418 0.2820768,-0.00234 0.00939,0.925363 c 0,0 0.00186,0.1266453 0.00239,0.1895742 4.556e-4,0.033339 6.466e-4,0.066411 5.731e-4,0.09922 -0.039526,-0.00176 -0.079313,-0.00378 -0.1193691,-0.00606 -0.038436,4.922e-4 -0.077133,7.199e-4 -0.1160982,6.829e-4 -0.018213,-0.00187 -0.03669,-0.00401 -0.055433,-0.00642 9.273e-4,-0.065528 0.00199,-0.1973738 0.00199,-0.1973729 z"
       sodipodi:nodetypes="ccccccccccc" />
  </g>
</svg>
